<svg width="160" height="30" viewBox="0 0 160 30" fill="none" xmlns="http://www.w3.org/2000/svg">
<g clip-path="url(#clip0_1_1146)">
<path d="M93.5615 12.7171V24.439C93.5763 24.5674 93.5606 24.6975 93.5159 24.8187C93.4712 24.94 93.3987 25.0491 93.3041 25.1372C93.0966 25.2777 92.8486 25.3461 92.5984 25.3321C92.3517 25.3472 92.1072 25.2786 91.9045 25.1372C91.8125 25.0474 91.7422 24.9379 91.6989 24.8169C91.6556 24.6959 91.6404 24.5667 91.6545 24.439V10.3126C91.6355 10.1416 91.6572 9.96851 91.7175 9.80741C91.7779 9.6463 91.8752 9.50177 92.0019 9.38533C92.2844 9.22088 92.604 9.13044 92.9308 9.12242C93.2576 9.11441 93.5811 9.18905 93.8713 9.33946C94.0844 9.5101 94.2469 9.73563 94.3413 9.9918L99.5805 22.7901L104.82 9.9918C104.913 9.73804 105.072 9.51319 105.279 9.33946C105.559 9.18905 105.874 9.11419 106.192 9.12222C106.51 9.13026 106.82 9.22095 107.092 9.38533C107.213 9.5057 107.304 9.65148 107.36 9.81198C107.417 9.97249 107.436 10.1435 107.417 10.3126V24.439C107.431 24.5667 107.416 24.6959 107.373 24.8169C107.33 24.9379 107.259 25.0474 107.167 25.1372C106.965 25.2786 106.72 25.3472 106.474 25.3321C106.224 25.3459 105.976 25.2775 105.769 25.1372C105.674 25.0491 105.601 24.94 105.557 24.8187C105.512 24.6975 105.496 24.5674 105.511 24.439V12.6913L100.675 24.3673C100.586 24.5801 100.448 24.7686 100.272 24.9172C100.054 25.0663 99.7968 25.1461 99.533 25.1461C99.2692 25.1461 99.0117 25.0663 98.7941 24.9172C98.6179 24.7686 98.4796 24.58 98.3909 24.3673L93.5615 12.7171ZM121.459 10.061C121.444 9.92737 121.459 9.79215 121.504 9.66533C121.548 9.5385 121.621 9.42344 121.716 9.32868C121.928 9.17922 122.185 9.10656 122.444 9.12283C122.706 9.10776 122.966 9.1802 123.183 9.32868C123.281 9.42145 123.357 9.53586 123.404 9.66299C123.45 9.79011 123.467 9.92637 123.452 10.061V19.3792C123.462 20.2318 123.326 21.0797 123.049 21.8861C122.798 22.6127 122.393 23.2766 121.862 23.8324C121.313 24.3922 120.648 24.8258 119.914 25.103C119.056 25.423 118.144 25.5784 117.228 25.5612C116.315 25.5791 115.407 25.4237 114.552 25.103C113.822 24.8238 113.162 24.3904 112.615 23.8324C112.084 23.2766 111.679 22.6127 111.429 21.8861C111.152 21.0797 111.015 20.2318 111.025 19.3792V10.061C111.01 9.92637 111.027 9.79011 111.073 9.66299C111.12 9.53586 111.196 9.42145 111.295 9.32868C111.511 9.1802 111.771 9.10776 112.033 9.12283C112.293 9.10637 112.549 9.17904 112.762 9.32868C112.857 9.42348 112.93 9.53851 112.974 9.66533C113.019 9.79214 113.034 9.92738 113.019 10.061V19.2158C112.971 19.832 113.045 20.4516 113.237 21.039C113.429 21.6264 113.736 22.17 114.139 22.6385C115.008 23.3705 116.109 23.7719 117.245 23.7719C118.382 23.7719 119.482 23.3705 120.352 22.6385C121.159 21.6888 121.557 20.4583 121.46 19.2158L121.459 10.061ZM133.84 16.5597C134.921 16.8292 135.907 17.387 136.695 18.1736C137.332 18.947 137.656 19.9316 137.602 20.9322C137.621 21.6511 137.472 22.3645 137.165 23.0151C136.889 23.5767 136.49 24.0694 135.999 24.4573C135.5 24.8447 134.929 25.128 134.319 25.2905C133.681 25.4666 133.022 25.5552 132.36 25.5538C131.271 25.5584 130.187 25.3963 129.147 25.073C128.146 24.7662 127.245 24.1972 126.538 23.425C126.383 23.2743 126.264 23.0902 126.191 22.8868C126.156 22.756 126.137 22.6214 126.135 22.486C126.138 22.3573 126.17 22.2307 126.227 22.1155C126.285 22.0003 126.367 21.8992 126.468 21.8195C126.654 21.637 126.902 21.5308 127.162 21.522C127.292 21.5353 127.415 21.5827 127.521 21.6595C127.624 21.7346 127.721 21.8183 127.811 21.9095C128.4 22.5672 129.126 23.0869 129.938 23.4317C130.698 23.709 131.503 23.8448 132.312 23.8324C133.151 23.8664 133.979 23.6295 134.673 23.1567C134.981 22.93 135.227 22.6302 135.389 22.2844C135.551 21.9385 135.625 21.5576 135.602 21.1763C135.62 20.8449 135.569 20.5135 135.454 20.2024C135.338 19.8913 135.16 19.6071 134.931 19.3675C134.291 18.8233 133.531 18.4386 132.714 18.2452L130.766 17.6728C129.616 17.4027 128.551 16.8523 127.666 16.0706C127.313 15.6953 127.041 15.2519 126.866 14.7677C126.69 14.2834 126.616 13.7685 126.647 13.2545C126.628 12.5669 126.794 11.887 127.128 11.2858C127.441 10.7452 127.869 10.2801 128.382 9.92355C128.899 9.56379 129.475 9.29655 130.084 9.13371C130.686 8.96885 131.307 8.88475 131.931 8.88372C132.922 8.87653 133.905 9.0551 134.83 9.41025C135.741 9.76709 136.535 10.3692 137.125 11.1499C137.227 11.2835 137.311 11.4296 137.375 11.5848C137.419 11.702 137.442 11.8262 137.443 11.9514C137.445 12.0732 137.421 12.194 137.37 12.305C137.32 12.4159 137.245 12.5141 137.152 12.5922C136.981 12.75 136.758 12.8389 136.525 12.8421C136.38 12.8436 136.237 12.808 136.109 12.7387C135.947 12.6421 135.8 12.5226 135.672 12.3839C135.196 11.8143 134.61 11.3469 133.949 11.01C133.308 10.723 132.612 10.5822 131.911 10.5976C131.503 10.5962 131.096 10.6501 130.702 10.7575C130.33 10.8569 129.978 11.0195 129.661 11.2383C129.356 11.4503 129.104 11.7282 128.922 12.0514C128.73 12.3979 128.634 12.7888 128.642 13.1845C128.639 13.4528 128.68 13.7198 128.765 13.9744C128.857 14.2273 129.003 14.4577 129.191 14.6501C129.435 14.8947 129.719 15.096 130.031 15.2458C130.463 15.4582 130.912 15.6343 131.374 15.7723L133.84 16.5597ZM140.579 10.061C140.564 9.92737 140.579 9.79215 140.624 9.66533C140.669 9.5385 140.741 9.42344 140.837 9.32868C141.055 9.19385 141.307 9.12242 141.564 9.12242C141.821 9.12242 142.073 9.19385 142.292 9.32868C142.387 9.42344 142.46 9.5385 142.505 9.66533C142.549 9.79215 142.565 9.92737 142.549 10.061V24.3915C142.565 24.5251 142.549 24.6603 142.505 24.7871C142.46 24.9139 142.387 25.029 142.292 25.1238C142.073 25.2585 141.821 25.3299 141.564 25.3299C141.307 25.3299 141.055 25.2585 140.837 25.1238C140.741 25.029 140.669 24.9139 140.624 24.7871C140.579 24.6603 140.564 24.5251 140.579 24.3915V10.061ZM157.193 20.9821C157.293 20.7829 157.426 20.6012 157.584 20.4439C157.717 20.3273 157.889 20.2658 158.066 20.2722C158.301 20.2792 158.531 20.3421 158.737 20.4556C158.858 20.522 158.956 20.6225 159.02 20.7447C159.084 20.8668 159.11 21.0051 159.095 21.1421C159.071 21.5276 158.952 21.9011 158.748 22.2293C158.534 22.6228 158.283 22.9948 157.998 23.34C157.894 23.4622 157.711 23.6491 157.45 23.9008C157.138 24.1895 156.792 24.4393 156.42 24.6447C155.941 24.9122 155.434 25.1273 154.909 25.2863C154.255 25.4796 153.576 25.5722 152.894 25.5612C151.859 25.5752 150.834 25.3723 149.882 24.9655C148.998 24.5823 148.208 24.0121 147.565 23.2942C146.899 22.5332 146.392 21.6453 146.077 20.6838C145.375 18.4441 145.375 16.0434 146.077 13.8036C146.392 12.8353 146.898 11.9401 147.565 11.1708C148.205 10.4471 148.996 9.87253 149.882 9.48775C150.834 9.08126 151.859 8.87862 152.894 8.89288C153.552 8.88249 154.208 8.96671 154.842 9.14287C155.346 9.28513 155.834 9.48059 156.297 9.72604C156.652 9.91374 156.983 10.1443 157.282 10.4126C157.536 10.6492 157.722 10.8362 157.842 10.9734C158.129 11.3215 158.388 11.6929 158.614 12.0839C158.829 12.4082 158.956 12.7829 158.983 13.1712C158.997 13.3094 158.97 13.4487 158.904 13.5711C158.838 13.6935 158.737 13.7933 158.614 13.8577C158.403 13.9705 158.17 14.0332 157.931 14.041C157.754 14.0474 157.582 13.986 157.449 13.8694C157.307 13.7346 157.189 13.5758 157.102 13.4003C156.925 13.0757 156.723 12.7656 156.497 12.473C156.251 12.1521 155.965 11.8635 155.646 11.614C155.293 11.341 154.9 11.1249 154.48 10.9734C153.977 10.797 153.446 10.7123 152.913 10.7234C152.136 10.7074 151.366 10.872 150.664 11.2041C150.021 11.5196 149.458 11.9775 149.018 12.543C148.55 13.1568 148.208 13.857 148.011 14.6034C147.563 16.33 147.563 18.1424 148.011 19.8691C148.208 20.6155 148.55 21.3156 149.018 21.9294C149.458 22.4953 150.021 22.9535 150.664 23.2692C151.366 23.6013 152.136 23.7658 152.913 23.7499C153.501 23.7643 154.086 23.6671 154.637 23.4633C155.461 23.1501 156.166 22.5855 156.652 21.8495C156.863 21.5301 157.044 21.2405 157.195 20.9805L157.193 20.9821Z" fill="#F7F5F5"/>
<path d="M30.2561 11.4424C30.1764 11.1574 30.13 10.864 30.1178 10.5683C30.11 10.389 30.1444 10.2103 30.2182 10.0467C30.292 9.88303 30.4031 9.73894 30.5426 9.62603C30.8779 9.37964 31.2886 9.25773 31.704 9.28115C32.067 9.24802 32.4298 9.34578 32.727 9.55687C32.9515 9.77261 33.1007 10.0548 33.1527 10.3618L35.5895 21.537L37.9804 10.4767C38.0045 10.2765 38.0753 10.0848 38.1872 9.91701C38.2991 9.74925 38.4488 9.61022 38.6244 9.5111C38.9476 9.35751 39.3013 9.2789 39.6591 9.28115C40.0016 9.2736 40.3396 9.35999 40.6363 9.53104C40.7982 9.64741 40.9354 9.79474 41.0399 9.9645C41.1444 10.1343 41.2143 10.3231 41.2453 10.52L43.6821 21.5346L46.1655 10.2868C46.213 9.9825 46.3753 9.70792 46.6191 9.51975C46.8629 9.33157 47.1696 9.24405 47.476 9.27525C47.8868 9.24734 48.2919 9.38376 48.6023 9.6544C48.7287 9.77393 48.8287 9.91852 48.8959 10.0789C48.9632 10.2393 48.9963 10.412 48.993 10.5859C48.9865 10.8895 48.94 11.1909 48.8547 11.4823L45.4291 24.4281C45.3846 24.612 45.3024 24.7847 45.1877 24.9352C45.0729 25.0856 44.9282 25.2106 44.7626 25.3021C44.4206 25.4743 44.0416 25.5601 43.6588 25.552C43.2189 25.5773 42.7821 25.4649 42.4091 25.2304C42.1111 25.017 41.9088 24.6951 41.846 24.334L39.57 14.2402L37.2707 24.4048C37.2427 24.5917 37.1723 24.7698 37.0647 24.9252C36.957 25.0806 36.8152 25.2094 36.65 25.3013C36.3005 25.4752 35.9139 25.5609 35.5237 25.5512C35.0878 25.5804 34.6547 25.4631 34.2932 25.2179C34.0051 24.9868 33.8004 24.6679 33.71 24.3098L30.2561 11.4424ZM54.0757 18.4093L49.7761 11.6032C49.576 11.3113 49.4644 10.9679 49.4546 10.6142C49.4446 10.4284 49.4754 10.2427 49.5448 10.0702C49.6142 9.8976 49.7206 9.7423 49.8565 9.61525C49.9923 9.48819 50.1544 9.39248 50.3312 9.33474C50.508 9.27701 50.6953 9.25874 50.88 9.28115C51.2063 9.25791 51.5297 9.35608 51.788 9.55687C51.9982 9.74451 52.1803 9.96147 52.3287 10.201L55.6169 15.6998L58.8359 10.4343C59.0041 10.1479 59.1994 9.87837 59.4191 9.62938C59.5365 9.5096 59.6785 9.41677 59.8352 9.35722C59.992 9.29767 60.1599 9.27286 60.3272 9.2845C60.6945 9.2745 61.0546 9.3877 61.3502 9.60609C61.4871 9.70591 61.5976 9.83777 61.6718 9.99013C61.746 10.1425 61.7817 10.3107 61.7759 10.48C61.7703 10.6477 61.7423 10.8139 61.6926 10.9741C61.6463 11.1493 61.5727 11.316 61.4743 11.4682L56.9681 18.4126V24.2307C56.9734 24.5674 56.8638 24.896 56.6574 25.1622C56.5152 25.3107 56.3406 25.4242 56.1473 25.494C55.9539 25.5638 55.747 25.5879 55.5427 25.5645C54.5619 25.5645 54.0715 25.1202 54.0715 24.2315L54.0757 18.4093ZM63.3646 10.7758C63.3458 10.5663 63.3743 10.3553 63.448 10.1584C63.5216 9.96136 63.6386 9.78342 63.7903 9.63772C64.0919 9.39381 64.4715 9.26718 64.8592 9.28115C65.1541 9.2786 65.4456 9.34567 65.7097 9.47693C66.0415 9.68055 66.3116 9.97053 66.4912 10.3159L72.3311 20.4106V10.6175C72.3107 10.4285 72.3332 10.2373 72.3968 10.0582C72.4604 9.87903 72.5635 9.71651 72.6985 9.5827C72.9985 9.36637 73.3641 9.26067 73.7332 9.28359C74.1018 9.26541 74.4659 9.37067 74.7679 9.5827C74.9096 9.71248 75.0187 9.87374 75.0866 10.0535C75.1545 10.2332 75.1792 10.4265 75.1586 10.6175V24.0923C75.1583 24.2658 75.1429 24.4389 75.1128 24.6097C75.0853 24.7781 75.0225 24.9388 74.9287 25.0813C74.8226 25.2309 74.6789 25.3498 74.5121 25.4262C74.2729 25.5292 74.0134 25.5765 73.7532 25.5645C73.4295 25.5604 73.1131 25.4683 72.8376 25.2982C72.5622 25.1282 72.3382 24.8865 72.1895 24.5989L66.2112 14.8959V24.2082C66.2165 24.5429 66.1203 24.8714 65.9355 25.1505C65.8005 25.306 65.6289 25.4256 65.4362 25.4983C65.2435 25.571 65.0358 25.5947 64.8317 25.5671C64.4293 25.6039 64.0276 25.4892 63.7053 25.2455C63.5794 25.1062 63.4838 24.9423 63.4244 24.7642C63.3651 24.5861 63.3433 24.3976 63.3604 24.2106L63.3646 10.7758ZM78.1486 10.5683C78.1307 10.3832 78.158 10.1966 78.2281 10.0244C78.2982 9.85217 78.409 9.6995 78.551 9.57945C78.8653 9.36636 79.2405 9.26137 79.6198 9.28033C79.9843 9.26532 80.3438 9.37041 80.6428 9.57945C80.7848 9.6995 80.8956 9.85217 80.9657 10.0244C81.0357 10.1966 81.063 10.3832 81.0452 10.5683V16.1556L86.2412 10.1084C86.4181 9.89987 86.6133 9.70753 86.8243 9.53358C87.0367 9.36388 87.3025 9.27524 87.5741 9.28359C87.7595 9.27775 87.9438 9.31305 88.1139 9.38692C88.2688 9.46194 88.4122 9.55871 88.5397 9.67434C88.6728 9.80599 88.7852 9.9572 88.8729 10.1227C88.9603 10.2973 89.0038 10.4906 88.9995 10.6859C88.9938 10.8776 88.9466 11.0657 88.8612 11.2374C88.7675 11.4391 88.6433 11.6251 88.493 11.789L84.8374 15.9973L89.4819 23.4474C89.6191 23.6598 89.6909 23.9078 89.6885 24.1607C89.6945 24.5291 89.5539 24.8848 89.2978 25.1497C89.1497 25.2942 88.973 25.406 88.7789 25.4778C88.5849 25.5495 88.3779 25.5797 88.1714 25.5662C87.8825 25.5775 87.5984 25.4892 87.3667 25.3162C87.133 25.1249 86.9379 24.8908 86.7918 24.6264L82.7222 18.096L81.0435 20.0273V24.2123C81.048 24.5505 80.9431 24.881 80.7445 25.1546C80.6036 25.3089 80.4278 25.4273 80.2319 25.4997C80.0359 25.5722 79.8255 25.5967 79.6181 25.5712C79.2157 25.6081 78.8141 25.4934 78.4918 25.2496C78.3659 25.1104 78.2703 24.9465 78.2109 24.7684C78.1515 24.5903 78.1297 24.4017 78.1469 24.2148L78.1486 10.5683Z" fill="#FA3235"/>
<path d="M22.5008 8.60043L22.3425 10.041C24.1967 11.7374 25.3991 14.0289 25.7417 16.5187C26.0843 19.0084 25.5454 21.5397 24.2183 23.6739C22.8913 25.8081 20.8597 27.411 18.4753 28.2049C16.091 28.9988 13.5041 28.9337 11.1628 28.0209C8.82136 27.1081 6.8729 25.4052 5.65483 23.2069C4.43676 21.0086 4.0258 18.4535 4.49311 15.9841C4.96043 13.5147 6.2766 11.2865 8.21367 9.68542C10.1507 8.08435 12.5867 7.21129 15.0997 7.21734C16.2101 7.21701 17.3138 7.39078 18.3704 7.73227L18.5045 6.54751C17.3837 6.21596 16.221 6.04751 15.0522 6.04753C13.476 6.03953 11.9137 6.34257 10.4548 6.93918C8.99583 7.53579 7.66886 8.41426 6.54983 9.52442C5.43081 10.6346 4.54172 11.9546 3.93343 13.4088C3.32515 14.8631 3.00963 16.423 3.00494 17.9994C3.06562 21.1793 4.36241 24.2106 6.62032 26.4504C8.87823 28.6901 11.9197 29.9622 15.0997 29.9969C18.277 29.9803 21.3196 28.7113 23.5671 26.4651C25.8146 24.2189 27.0857 21.177 27.1045 17.9994C27.1062 16.1845 26.6922 14.3933 25.8942 12.7633C25.0961 11.1333 23.9353 9.70785 22.5008 8.59626" fill="#FA3235"/>
<path d="M22.0468 12.7213L21.7902 15.0541C22.2352 16.0013 22.467 17.0346 22.4692 18.0811C22.4401 20.0321 21.6517 21.8948 20.2715 23.2739C18.8914 24.653 17.028 25.4398 15.0772 25.4671C13.1197 25.4612 11.244 24.6813 9.85916 23.2976C8.47437 21.914 7.69288 20.0388 7.6852 18.0811C7.71427 16.1301 8.5026 14.2672 9.8828 12.8881C11.263 11.509 13.1264 10.7224 15.0772 10.6951C16.0724 10.6968 17.0564 10.9059 17.9663 11.3091L18.1329 9.80016C17.1563 9.42289 16.1183 9.2292 15.0713 9.22868C13.3349 9.23857 11.6404 9.7627 10.2017 10.735C8.76295 11.7074 7.64455 13.0843 6.98769 14.6919C6.33084 16.2994 6.16499 18.0655 6.51106 19.7672C6.85714 21.469 7.69963 23.0301 8.93217 24.2533C10.1647 25.4766 11.732 26.3072 13.4362 26.6403C15.1404 26.9733 16.9051 26.7938 18.5074 26.1246C20.1097 25.4554 21.4778 24.3264 22.439 22.8801C23.4002 21.4339 23.9113 19.7352 23.9079 17.9986C23.8898 16.0807 23.2338 14.2234 22.0434 12.7196" fill="#FA3235"/>
<path d="M1.08884 17.5986C1.0775 13.9092 2.52751 10.3655 5.12174 7.7424C7.71598 5.11934 11.2433 3.63054 14.9323 3.60148H15.0597V2.63244H14.9323C10.9694 2.64016 7.17156 4.21991 4.37208 7.02497C1.5726 9.83003 0.000213134 13.6313 0 17.5945L1.08884 17.5986Z" fill="#FA3235"/>
<path d="M20.4215 0.00213623L18.717 15.2291C18.0445 14.7243 17.2633 14.3836 16.4359 14.2342C15.6084 14.0848 14.7574 14.1307 13.9509 14.3685C11.33 15.125 11.1051 17.1271 11.1034 17.597C11.1034 18.4901 11.7699 20.8905 14.9639 21.4013C18.7961 21.912 19.7958 19.5633 19.9533 18.7459C20.1565 17.9494 21.1029 9.17531 21.1029 9.17531L21.6136 4.36375C21.6136 4.36375 24.3195 4.25546 25.5966 5.53021C26.0197 5.99239 26.2988 6.56793 26.3997 7.18637C26.5006 7.8048 26.419 8.43934 26.1648 9.01207C25.9782 9.5578 25.54 10.0801 26.0898 9.9085C26.8826 9.39866 27.4458 8.60022 27.6602 7.68228C27.7218 6.97025 27.597 6.25446 27.2982 5.60526C26.9993 4.95607 26.5366 4.39586 25.9557 3.97971C25.6999 3.72476 23.5239 2.42832 23.159 2.06339C22.6467 1.61553 22.3226 0.990558 22.2518 0.31376L20.4215 0.00213623Z" fill="#FA3235"/>
</g>
<defs>
<clipPath id="clip0_1_1146">
<rect width="159.094" height="30" fill="white"/>
</clipPath>
</defs>
</svg>
