<svg width="25" height="24" viewBox="0 0 25 24" fill="none" xmlns="http://www.w3.org/2000/svg">
<g clip-path="url(#clip0_1_1164)">
<path fill-rule="evenodd" clip-rule="evenodd" d="M9.85 4.8C8.57696 4.8 7.35606 5.30571 6.45589 6.20589C5.55571 7.10606 5.05 8.32696 5.05 9.6C5.05 10.873 5.55571 12.0939 6.45589 12.9941C7.35606 13.8943 8.57696 14.4 9.85 14.4C11.123 14.4 12.3439 13.8943 13.2441 12.9941C14.1443 12.0939 14.65 10.873 14.65 9.6C14.65 8.32696 14.1443 7.10606 13.2441 6.20589C12.3439 5.30571 11.123 4.8 9.85 4.8ZM2.65 9.6C2.64985 8.46684 2.91717 7.34965 3.4302 6.33929C3.94324 5.32892 4.6875 4.45392 5.60247 3.78543C6.51744 3.11694 7.57727 2.67385 8.69577 2.4922C9.81427 2.31054 10.9599 2.39545 12.0394 2.74002C13.1189 3.08459 14.1018 3.67908 14.9082 4.47515C15.7146 5.27123 16.3217 6.2464 16.6802 7.32136C17.0387 8.39632 17.1384 9.54071 16.9712 10.6615C16.804 11.7822 16.3746 12.8477 15.718 13.7712L21.4984 19.5516C21.717 19.7779 21.8379 20.081 21.8352 20.3957C21.8325 20.7103 21.7063 21.0113 21.4838 21.2338C21.2613 21.4563 20.9603 21.5825 20.6457 21.5852C20.331 21.5879 20.0279 21.467 19.8016 21.2484L14.0224 15.4692C12.9452 16.2351 11.678 16.6898 10.3596 16.7833C9.0412 16.8769 7.72248 16.6057 6.54796 15.9996C5.37343 15.3934 4.38842 14.4756 3.70087 13.3468C3.01331 12.218 2.64974 10.9217 2.65 9.6Z" fill="#F7F5F5"/>
</g>
<defs>
<clipPath id="clip0_1_1164">
<rect width="24" height="24" fill="white" transform="translate(0.25)"/>
</clipPath>
</defs>
</svg>
