<?xml version="1.0" standalone="no"?>
<!DOCTYPE svg PUBLIC "-//W3C//DTD SVG 20010904//EN"
 "http://www.w3.org/TR/2001/REC-SVG-20010904/DTD/svg10.dtd">
<svg version="1.0" xmlns="http://www.w3.org/2000/svg"
 width="984.000000pt" height="520.000000pt" viewBox="0 0 984.000000 520.000000"
 preserveAspectRatio="xMidYMid meet">
<metadata>
Created by potrace 1.16, written by Peter Selinger 2001-2019
</metadata>
<g transform="translate(0.000000,520.000000) scale(0.100000,-0.100000)"
fill="#000000" stroke="none">
<path d="M4820 3075 c0 -20 5 -25 24 -25 35 0 56 -10 56 -26 0 -11 -18 -14
-79 -14 -47 0 -93 -6 -114 -15 -47 -19 -57 -19 -57 3 0 10 -3 13 -8 6 -4 -6
-15 -13 -24 -17 -29 -10 -29 -119 -1 -150 15 -16 15 -18 0 -30 -11 -8 -19 -34
-23 -74 -4 -35 -10 -63 -14 -63 -10 0 -30 -47 -23 -54 3 -3 15 1 27 9 21 15
67 20 79 9 3 -4 -1 -13 -10 -22 -14 -14 -14 -17 3 -23 11 -4 14 -8 8 -8 -15
-1 -25 -27 -18 -46 5 -12 31 -15 149 -15 117 0 146 -3 159 -16 18 -18 19 -23
6 -44 -7 -11 -34 -16 -97 -20 -86 -5 -88 -6 -88 -30 0 -25 0 -25 104 -28 97
-3 138 -13 126 -32 -5 -8 19 -23 40 -25 6 -1 25 -5 43 -9 32 -8 32 -8 32 -72
l0 -64 -45 0 c-39 0 -45 -3 -51 -25 -12 -48 7 -56 134 -53 97 3 117 6 126 21
18 28 -4 52 -53 55 l-41 3 0 74 c0 66 3 77 25 99 14 14 25 32 25 41 0 8 5 15
10 15 18 0 10 -28 -15 -51 -51 -49 -11 -53 44 -4 51 46 71 94 71 170 0 36 -3
65 -8 65 -4 0 -40 -9 -81 -20 -40 -12 -82 -18 -93 -14 -15 4 -18 3 -13 -6 5
-9 4 -11 -3 -6 -21 13 -13 34 16 40 89 22 162 48 162 59 0 7 -4 18 -9 26 -8
12 -22 11 -96 -8 -59 -16 -90 -20 -97 -13 -18 18 0 29 92 52 82 22 90 26 84
44 -4 12 -8 23 -11 25 -2 3 -41 -5 -87 -17 -99 -26 -96 -26 -96 -7 0 18 19 28
103 50 57 15 67 21 67 40 0 12 -3 24 -6 27 -3 3 -33 -3 -67 -13 -34 -10 -77
-19 -95 -19 -60 0 -30 24 62 50 l88 24 -6 31 c-11 53 -58 117 -105 142 -40 21
-57 23 -188 23 l-143 0 0 -25z"/>
<path d="M5853 2874 c12 -14 17 -38 17 -80 0 -83 9 -91 50 -49 l34 35 28 -27
c27 -25 28 -31 28 -118 0 -101 11 -126 42 -98 24 22 26 148 3 173 -14 16 -13
20 11 49 l27 32 28 -27 c19 -18 34 -24 45 -20 17 6 17 6 1 -12 -13 -14 -17
-38 -17 -103 0 -87 9 -112 39 -102 9 3 0 -10 -18 -30 -19 -21 -40 -37 -46 -37
-18 0 -55 44 -55 65 0 15 -10 10 -45 -25 l-45 -44 -27 25 -27 24 25 -31 c13
-17 27 -29 32 -27 4 2 7 1 7 -4 0 -4 34 -9 75 -10 42 0 97 -6 123 -13 34 -8
56 -8 76 -1 36 14 109 14 123 0 9 -9 28 -4 77 21 45 22 72 30 83 24 32 -14 52
-12 58 6 3 10 14 25 25 35 27 24 25 33 -5 31 -21 -1 -23 -3 -10 -12 12 -9 10
-15 -15 -39 l-30 -29 -25 24 c-23 22 -25 30 -25 116 0 69 -4 95 -15 104 -12
10 -18 10 -30 0 -21 -18 -22 -168 0 -176 11 -5 6 -14 -21 -39 l-35 -34 -29 32
c-21 24 -26 36 -19 49 15 29 11 154 -6 168 -12 10 -18 10 -30 0 -18 -15 -21
-160 -4 -177 8 -8 6 -14 -9 -22 -11 -6 -24 -21 -28 -33 l-7 -22 -16 21 c-9 11
-27 25 -39 32 -20 11 -21 13 -7 28 12 12 15 33 13 97 -3 70 -5 81 -20 80 -26
-2 -22 8 17 46 l35 34 25 -24 c14 -13 25 -33 25 -44 0 -17 7 -13 43 22 l43 42
27 -28 c15 -15 27 -34 27 -42 0 -8 19 5 43 28 l43 42 24 -25 c15 -16 32 -24
42 -22 16 5 16 3 3 -16 -19 -26 -19 -37 -2 -37 8 0 20 -11 27 -25 23 -43 74
-27 68 21 -2 21 -8 29 -21 27 -12 0 -16 4 -13 13 3 8 1 14 -4 14 -6 0 -10 12
-10 28 -1 24 -2 25 -14 10 -17 -23 -49 -23 -70 1 -26 29 -56 34 -56 9 0 -14
-5 -18 -16 -14 -9 3 -20 6 -24 6 -5 0 -21 12 -35 26 -31 31 -54 33 -307 21
-149 -7 -168 -6 -168 7 0 12 -10 16 -37 16 -26 0 -46 8 -67 28 -17 15 -23 18
-13 6z"/>
<path d="M4040 2820 c0 -16 -3 -30 -8 -30 -4 0 -13 -9 -20 -21 -11 -16 -11
-19 -1 -13 7 4 2 -8 -11 -27 -14 -19 -23 -35 -22 -37 2 -2 0 -7 -4 -10 -4 -4
-5 -2 -1 3 3 6 -6 12 -20 13 -15 1 -23 -1 -20 -5 4 -3 1 -13 -5 -22 -10 -14
-10 -14 6 0 16 15 19 15 42 -8 14 -14 31 -22 39 -20 11 5 11 1 -1 -21 -8 -15
-13 -47 -12 -72 1 -37 2 -39 5 -12 4 26 9 32 28 32 17 0 25 -7 28 -22 2 -13 5
14 6 60 1 75 -1 83 -19 90 -19 7 -18 10 15 42 19 19 35 37 35 42 0 4 -13 21
-30 38 l-30 31 0 -31z"/>
<path d="M3694 2768 c-10 -15 8 -29 28 -22 20 6 19 5 -1 -15 -18 -18 -21 -33
-21 -105 0 -74 3 -87 20 -99 20 -14 20 -15 -15 -46 -20 -17 -32 -31 -27 -31
12 0 88 80 77 81 -6 1 -16 2 -24 3 -8 0 -16 7 -18 14 -3 8 8 12 36 12 26 0 41
5 41 12 0 8 6 6 17 -5 16 -16 15 -18 -7 -44 l-24 -28 29 27 c28 27 29 27 10
48 -11 12 -27 19 -36 17 -15 -4 -15 -2 -3 22 8 14 14 45 14 69 0 32 4 42 16
42 13 0 14 3 4 15 -6 8 -9 19 -6 24 4 6 -8 12 -26 15 -44 6 -78 4 -84 -6z"/>
</g>
</svg>
