<?xml version="1.0" standalone="no"?>
<!DOCTYPE svg PUBLIC "-//W3C//DTD SVG 20010904//EN"
 "http://www.w3.org/TR/2001/REC-SVG-20010904/DTD/svg10.dtd">
<svg version="1.0" xmlns="http://www.w3.org/2000/svg"
 width="984.000000pt" height="520.000000pt" viewBox="0 0 984.000000 520.000000"
 preserveAspectRatio="xMidYMid meet">

<g transform="translate(0.000000,520.000000) scale(0.100000,-0.100000)"
fill="#000000" stroke="none">
<path d="M4824 3085 c-9 -21 4 -33 40 -37 37 -4 55 -30 37 -52 -11 -13 -34
-16 -106 -16 -65 0 -94 -4 -97 -12 -11 -29 4 -38 66 -38 36 0 70 -6 80 -13 28
-20 16 -50 -24 -63 -47 -15 -56 -54 -13 -54 41 0 66 -21 61 -51 -3 -22 -9 -25
-61 -29 -60 -5 -85 -23 -66 -47 6 -7 41 -13 81 -15 55 -2 73 -7 82 -20 8 -13
8 -23 0 -35 -9 -15 -31 -19 -130 -23 -106 -4 -119 -7 -122 -24 -2 -10 2 -22
10 -27 7 -5 77 -9 155 -9 l143 0 6 -25 c11 -42 -9 -54 -99 -57 -80 -3 -82 -4
-82 -28 0 -25 1 -25 104 -28 91 -2 107 -6 135 -27 17 -13 47 -27 66 -32 l35
-9 3 -67 3 -67 -35 0 c-49 0 -66 -9 -66 -35 0 -38 22 -46 117 -44 101 2 133
11 133 37 0 27 -20 42 -56 42 l-31 0 -7 74 c-7 73 -6 74 24 104 36 37 39 77 8
117 l-21 28 22 -12 c12 -7 29 -27 37 -45 14 -29 14 -36 0 -69 -15 -36 -14 -37
4 -27 53 28 98 130 86 195 -6 32 -10 36 -29 31 -121 -31 -168 -39 -179 -28
-20 20 8 38 97 62 77 21 85 25 85 47 0 21 -3 23 -22 17 -63 -20 -163 -42 -170
-38 -15 9 -8 43 10 48 135 39 162 49 162 60 0 24 -12 24 -98 1 -47 -13 -89
-22 -94 -19 -4 3 -8 14 -8 24 0 19 10 23 161 66 11 3 15 12 12 25 -4 14 -11
18 -25 13 -121 -38 -153 -44 -167 -29 -12 11 -12 17 -1 29 7 9 17 16 23 16 5
0 41 9 80 21 l69 21 -6 31 c-9 47 -51 100 -99 128 -38 22 -56 24 -179 27 -121
3 -139 2 -144 -13z"/>
<path d="M4604 2966 c-9 -22 4 -36 32 -36 21 0 25 4 22 23 -4 26 -45 37 -54
13z"/>
<path d="M4674 2835 c-9 -22 4 -35 36 -35 28 0 41 14 33 38 -6 17 -62 15 -69
-3z"/>
<path d="M4613 2694 c-9 -23 10 -36 48 -32 26 2 35 8 37 26 3 20 -1 22 -38 22
-28 0 -43 -5 -47 -16z"/>
<path d="M4566 2564 c-4 -10 -1 -24 7 -31 19 -19 49 -5 45 21 -4 27 -43 34
-52 10z"/>
</g>
</svg>
